# xmcd
#
# Track frame offsets:
#	150
#	11385
#	25935
#	41557
#	52030
#	61700
#	75932
#	88637
#	106752
#	116472
#	130955
#	147202
#	160590
#
# Disc length: 2349 seconds
#
# Revision: 4
# Processed by: cddbd v1.5.2PL0 Copyright (c) Steve Scherf et al.
# Submitted via: EasyCDDAExtractor 15.3.0.1
#
DISCID=93092b0d
DTITLE=Lucero - Cerca De Ti
DYEAR=1998
DGENRE=Latin
TTITLE0=Me Estoy Volviendo Mujer
TTITLE1=Desviste Mi Boca
TTITLE2=Corazon Lastimado
TTITLE3=Besos De Amor
TTITLE4=¡Antojo!
TTITLE5=Te Amare Toda La Vida
TTITLE6=No Vuelvas
TTITLE7=A Partir De Hoy
TTITLE8=El Milagro
TTITLE9=Sera Que Estoy Enamorada
TTITLE10=Cerca De Ti
TTITLE11=Con Doble Cara
TTITLE12=Porque Soy Mujer
EXTD=\nURL: http://spin.com.mx/~hmedina/home.html "Lucero"
EXTT0=by Jos  Alfredo Jim nez
EXTT1=by Humberto Estrada
EXTT2=by Rub n Fuentes and Isabel Leonor Cova
EXTT3=by Rafael Torres and Oscar Lira
EXTT4=by Isabel Leonor Cova and Rub n Fuentes
EXTT5=by Enrique Coki Navarro
EXTT6=by Fernando Mart nez
EXTT7=by Humberto Estrada
EXTT8=by Felipe Indio Jim nez
EXTT9=by David Beigdeber
EXTT10=by Rafael P rez and Botija
EXTT11=by Benjam n S nchez Mota
EXTT12=by Armando Manzanero
PLAYORDER=
